<svg xmlns="http://www.w3.org/2000/svg" viewBox="0 0 220 150">
  <defs>
    <linearGradient id="body" x1="0" y1="0" x2="1" y2="1">
      <stop stop-color="#ff77d6"/>
      <stop offset=".42" stop-color="#ec267d"/>
      <stop offset="1" stop-color="#8d174f"/>
    </linearGradient>
    <linearGradient id="glass" x1="0" y1="0" x2="1" y2="1">
      <stop stop-color="#ffd8fb"/>
      <stop offset=".38" stop-color="#8e5cff"/>
      <stop offset="1" stop-color="#32184e"/>
    </linearGradient>
    <linearGradient id="metal" x1="0" y1="0" x2="1" y2="1">
      <stop stop-color="#fff"/>
      <stop offset=".35" stop-color="#a9b8d6"/>
      <stop offset="1" stop-color="#38425d"/>
    </linearGradient>
    <filter id="glow" x="-60%" y="-60%" width="220%" height="220%">
      <feGaussianBlur stdDeviation="5" result="b"/>
      <feMerge><feMergeNode in="b"/><feMergeNode in="SourceGraphic"/></feMerge>
    </filter>
  </defs>
  <g transform="translate(18 14)" stroke="#591445" stroke-width="5" stroke-linejoin="round">
    <path d="M46 93C66 39 111 6 177 8c3 53-24 90-82 111z" fill="url(#body)"/>
    <path d="M77 97 43 125l8-38z" fill="#aa235f"/>
    <path d="m118 106 5 31 25-45z" fill="#aa235f"/>
    <path d="M153 12c12-5 22-5 24-4 1 10-1 21-5 31z" fill="#ff9fdd"/>
    <ellipse cx="116" cy="55" rx="25" ry="23" fill="url(#metal)"/>
    <ellipse cx="116" cy="55" rx="18" ry="17" fill="url(#glass)" stroke-width="4"/>
    <circle cx="110" cy="49" r="5" fill="#fff" stroke="none" opacity=".9"/>
    <path d="M43 99 15 111l27 8 17-24z" fill="#dcdffd"/>
    <path d="m33 105-24 1 20 10z" fill="#fff" filter="url(#glow)" stroke="#7b67ff" stroke-width="3"/>
    <path d="M72 87c24 5 55-9 73-35" fill="none" stroke="#ff9fdd" stroke-width="4" opacity=".7"/>
    <circle cx="150" cy="30" r="5" fill="#fff" stroke="none" opacity=".8"/>
  </g>
</svg>